<?xml version="1.0" encoding="utf-8"?>
<!-- Generator: Adobe Illustrator 25.0.0, SVG Export Plug-In . SVG Version: 6.00 Build 0)  -->
<svg version="1.1" id="Layer_1" xmlns="http://www.w3.org/2000/svg" xmlns:xlink="http://www.w3.org/1999/xlink" x="0px" y="0px"
	 viewBox="0 0 32 32" enable-background="new 0 0 32 32" xml:space="preserve">
<rect x="0" fill="#020202" width="32" height="32"/>
<g>
	<g>
		<linearGradient id="SVGID_1_" gradientUnits="userSpaceOnUse" x1="-7.6575" y1="15.3321" x2="40.6649" y2="15.3321">
			<stop  offset="0" style="stop-color:#C7983A"/>
			<stop  offset="0.1454" style="stop-color:#754D29"/>
			<stop  offset="0.2864" style="stop-color:#E5B53F"/>
			<stop  offset="0.3394" style="stop-color:#E0AA30"/>
			<stop  offset="0.4364" style="stop-color:#E9BD4A"/>
			<stop  offset="0.5041" style="stop-color:#FFFFFF"/>
			<stop  offset="0.5983" style="stop-color:#EEC236"/>
			<stop  offset="0.7967" style="stop-color:#90642A"/>
			<stop  offset="0.9945" style="stop-color:#D99B28"/>
			<stop  offset="1" style="stop-color:#D99B28"/>
		</linearGradient>
		<path fill="url(#SVGID_1_)" d="M24.14,7.27C22.06,5.19,19.18,3.9,16,3.9c-3.18,0-6.06,1.29-8.14,3.37
			c-2.08,2.08-3.37,4.96-3.37,8.14s1.29,6.06,3.37,8.14c1.65,1.65,3.8,2.8,6.21,3.21v-0.67v-0.3v-0.49
			c-2.01-0.39-3.81-1.37-5.2-2.76c-1.83-1.83-2.95-4.34-2.95-7.13s1.13-5.3,2.95-7.13C10.7,6.46,13.21,5.33,16,5.33
			c2.79,0,5.3,1.13,7.13,2.95c1.83,1.83,2.95,4.34,2.95,7.13s-1.13,5.3-2.95,7.13c-1.23,1.23-2.76,2.13-4.48,2.6l0.8,0.8l-0.63,0.63
			c2.05-0.52,3.88-1.58,5.32-3.02c2.08-2.08,3.37-4.96,3.37-8.14S26.22,9.36,24.14,7.27z"/>
		<linearGradient id="SVGID_2_" gradientUnits="userSpaceOnUse" x1="-7.6575" y1="18.884" x2="40.6649" y2="18.884">
			<stop  offset="0" style="stop-color:#C7983A"/>
			<stop  offset="0.1454" style="stop-color:#754D29"/>
			<stop  offset="0.2864" style="stop-color:#E5B53F"/>
			<stop  offset="0.3394" style="stop-color:#E0AA30"/>
			<stop  offset="0.4364" style="stop-color:#E9BD4A"/>
			<stop  offset="0.5041" style="stop-color:#FFFFFF"/>
			<stop  offset="0.5983" style="stop-color:#EEC236"/>
			<stop  offset="0.7967" style="stop-color:#90642A"/>
			<stop  offset="0.9945" style="stop-color:#D99B28"/>
			<stop  offset="1" style="stop-color:#D99B28"/>
		</linearGradient>
		<path fill="url(#SVGID_2_)" d="M16.71,24.92v-4.01c1.24-0.16,2.36-0.73,3.2-1.57c1-1,1.62-2.39,1.62-3.91
			c0-0.31-0.03-0.62-0.08-0.92l-0.98,0.92l-0.38,0.36c-0.09,0.99-0.52,1.88-1.19,2.55c-0.74,0.74-1.77,1.2-2.9,1.2
			c-1.14,0-2.16-0.46-2.91-1.2c-0.74-0.75-1.2-1.77-1.21-2.91c0-1.14,0.46-2.16,1.21-2.9c0.74-0.75,1.77-1.2,2.91-1.2
			c1.14,0,2.16,0.46,2.9,1.2c0.09,0.09,0.17,0.18,0.25,0.27l-3.36,3.16l-2.23-2.88v2.32l2.06,2.66l6.86-6.45V9.69
			c-0.01-0.01-0.01-0.01-0.02-0.02l-2.28,2.14c-0.09-0.1-0.18-0.21-0.28-0.3c-1-1-2.39-1.62-3.91-1.62c-1.53,0-2.91,0.62-3.91,1.62
			c-1,1-1.62,2.39-1.62,3.91c0,1.53,0.62,2.91,1.62,3.91c0.84,0.84,1.96,1.41,3.2,1.57v7.19h1.42v-1.13l0.07-0.07l0.95-0.95
			l-0.52-0.52L16.71,24.92z"/>
	</g>
</g>
</svg>
