<?xml version="1.0" encoding="utf-8"?>
<!-- Generator: Adobe Illustrator 25.0.0, SVG Export Plug-In . SVG Version: 6.00 Build 0)  -->
<svg version="1.1" id="Layer_1" xmlns="http://www.w3.org/2000/svg" xmlns:xlink="http://www.w3.org/1999/xlink" x="0px" y="0px"
	 viewBox="0 0 1080 1080" enable-background="new 0 0 1080 1080" xml:space="preserve">
<rect x="0" fill="#020202" width="1080" height="1080"/>
<g>
	<g>
		<path fill="#FFFFFF" d="M749.62,315.26c-53.57-53.61-127.8-86.82-209.61-86.82c-81.81,0-156.07,33.21-209.64,86.82
			c-53.64,53.61-86.86,127.83-86.86,209.64s33.21,156.04,86.86,209.64c42.45,42.49,97.97,72.16,159.94,82.62v-17.23v-7.66v-12.56
			c-51.77-10.01-98.01-35.31-133.91-71.21c-47.02-47.05-76.07-111.85-76.07-183.61s29.05-136.56,76.07-183.61
			c47.05-47.02,111.82-76.03,183.61-76.03c71.76,0,136.52,29.01,183.57,76.03c47.02,47.05,76.07,111.85,76.07,183.61
			s-29.05,136.56-76.07,183.61c-31.59,31.55-71.1,54.97-115.35,66.97l20.58,20.62l-16.31,16.35
			c52.72-13.29,99.92-40.68,137.11-77.91c53.64-53.61,86.85-127.83,86.85-209.64S803.27,368.86,749.62,315.26z"/>
		<path fill="#FFFFFF" d="M558.32,769.77V666.39c32-4.09,60.79-18.81,82.44-40.5c25.74-25.74,41.72-61.45,41.72-100.77
			c0-8.03-0.66-15.94-1.95-23.64l-25.18,23.64l-9.87,9.28c-2.21,25.59-13.48,48.42-30.63,65.61c-19.18,19.18-45.54,31-74.81,31
			c-29.31,0-55.67-11.82-74.85-31c-19.18-19.22-31-45.58-31.04-74.89c0.04-29.27,11.85-55.6,31.04-74.81
			c19.18-19.22,45.54-31,74.85-31c29.27,0,55.63,11.78,74.81,31c2.25,2.21,4.35,4.57,6.37,7l-86.56,81.33l-57.33-74.08v59.83
			l53.06,68.52l176.77-166.11v-49.23c-0.16-0.18-0.32-0.38-0.48-0.56l-58.72,55.19c-2.28-2.69-4.68-5.3-7.18-7.81
			c-25.73-25.74-61.45-41.75-100.73-41.71c-39.32-0.04-75.03,15.98-100.77,41.71c-25.73,25.77-41.75,61.49-41.75,100.73
			c0,39.32,16.02,75.03,41.75,100.77c21.69,21.69,50.44,36.41,82.44,40.5v185.17h36.63v-29.14l1.77-1.77l24.52-24.56l-13.4-13.44
			L558.32,769.77z"/>
	</g>
</g>
</svg>
