<?xml version="1.0" encoding="utf-8"?>
<!-- Generator: Adobe Illustrator 25.0.0, SVG Export Plug-In . SVG Version: 6.00 Build 0)  -->
<svg version="1.1" id="Layer_1" xmlns="http://www.w3.org/2000/svg" xmlns:xlink="http://www.w3.org/1999/xlink" x="0px" y="0px"
	 viewBox="0 0 1920 1280" enable-background="new 0 0 1920 1280" xml:space="preserve">
<rect x="-1.38" fill="#020202" width="1922.77" height="1280"/>
<g>
	<g>
		<path fill="#FFFFFF" d="M819.82,695.88c-10.78-6.13-19.3-14.69-25.57-25.67c-6.27-10.98-9.4-23.35-9.4-37.09
			c0-13.75,3.13-26.11,9.4-37.09c6.27-10.98,14.79-19.54,25.57-25.67c10.78-6.13,22.71-9.2,35.78-9.2c13.21,0,25.2,3.07,35.98,9.2
			c10.78,6.13,19.27,14.65,25.47,25.57c6.2,10.92,9.3,23.31,9.3,37.19c0,13.88-3.1,26.28-9.3,37.19
			c-6.2,10.92-14.69,19.44-25.47,25.57c-10.78,6.13-22.77,9.2-35.98,9.2C842.53,705.07,830.6,702.01,819.82,695.88 M882.18,682.23
			c7.88-4.58,14.08-11.12,18.6-19.61c4.51-8.49,6.77-18.32,6.77-29.51c0-11.32-2.26-21.19-6.77-29.61
			c-4.52-8.42-10.68-14.92-18.5-19.51c-7.82-4.58-16.71-6.87-26.68-6.87c-9.98,0-18.87,2.29-26.68,6.87
			c-7.82,4.58-13.98,11.09-18.49,19.51c-4.52,8.42-6.77,18.29-6.77,29.61c0,11.19,2.26,21.02,6.77,29.51
			c4.51,8.49,10.71,15.03,18.6,19.61c7.88,4.58,16.74,6.87,26.58,6.87C865.43,689.1,874.3,686.82,882.18,682.23"/>
		<polygon fill="#FFFFFF" points="1061.37,703.66 1042.98,703.66 969,591.47 969,703.66 950.6,703.66 950.6,562.57 969,562.57 
			1042.98,674.55 1042.98,562.57 1061.37,562.57 		"/>
		<polygon fill="#FFFFFF" points="1111.1,688.7 1160.42,688.7 1160.42,703.66 1092.7,703.66 1092.7,562.77 1111.1,562.77 		"/>
		<rect x="1180.03" y="562.77" fill="#FFFFFF" width="18.39" height="140.89"/>
		<path fill="#FFFFFF" d="M1249.46,700.12c-7.35-3.3-13.11-7.88-17.28-13.74c-4.18-5.86-6.34-12.63-6.47-20.32h19.61
			c0.67,6.6,3.4,12.16,8.19,16.68c4.78,4.52,11.75,6.77,20.92,6.77c8.76,0,15.67-2.19,20.72-6.57c5.05-4.38,7.58-10,7.58-16.88
			c0-5.39-1.48-9.77-4.45-13.14c-2.97-3.37-6.67-5.93-11.12-7.68c-4.45-1.75-10.44-3.64-17.99-5.66c-9.3-2.43-16.75-4.85-22.34-7.28
			c-5.59-2.42-10.38-6.23-14.35-11.42c-3.98-5.19-5.96-12.16-5.96-20.92c0-7.68,1.95-14.48,5.86-20.42
			c3.91-5.93,9.4-10.51,16.47-13.75c7.07-3.23,15.19-4.85,24.36-4.85c13.21,0,24.02,3.3,32.44,9.9c8.42,6.6,13.17,15.36,14.25,26.28
			h-20.21c-0.68-5.39-3.51-10.14-8.49-14.25c-4.99-4.11-11.59-6.16-19.81-6.16c-7.68,0-13.95,1.99-18.8,5.96
			c-4.85,3.98-7.28,9.54-7.28,16.68c0,5.12,1.45,9.3,4.35,12.53c2.9,3.23,6.47,5.7,10.71,7.38c4.24,1.69,10.21,3.61,17.89,5.76
			c9.3,2.56,16.78,5.09,22.44,7.58c5.66,2.5,10.51,6.34,14.55,11.52c4.04,5.19,6.06,12.23,6.06,21.12c0,6.87-1.82,13.34-5.46,19.41
			c-3.64,6.06-9.03,10.98-16.17,14.76c-7.14,3.77-15.57,5.66-25.27,5.66C1265.12,705.08,1256.8,703.43,1249.46,700.12"/>
		<polygon fill="#FFFFFF" points="1435.12,562.77 1435.12,577.73 1396.71,577.73 1396.71,703.66 1378.32,703.66 1378.32,577.73 
			1339.71,577.73 1339.71,562.77 		"/>
	</g>
	<g>
		<path fill="#FFFFFF" d="M690.42,548.73c-21.76-21.77-51.9-35.26-85.12-35.26c-33.22,0-63.38,13.49-85.14,35.26
			c-21.79,21.77-35.27,51.91-35.27,85.14s13.49,63.37,35.27,85.14c17.24,17.26,39.79,29.31,64.95,33.55v-7v-3.11v-5.1
			c-21.02-4.07-39.8-14.34-54.38-28.92c-19.09-19.11-30.89-45.43-30.89-74.57s11.8-55.46,30.89-74.57
			c19.11-19.09,45.41-30.88,74.57-30.88c29.14,0,55.44,11.78,74.55,30.88c19.09,19.11,30.89,45.43,30.89,74.57
			s-11.8,55.46-30.89,74.57c-12.83,12.81-28.87,22.32-46.85,27.2l8.36,8.37l-6.62,6.64c21.41-5.4,40.58-16.52,55.68-31.64
			c21.79-21.77,35.27-51.91,35.27-85.14S712.2,570.5,690.42,548.73z"/>
		<path fill="#FFFFFF" d="M612.72,733.31v-41.99c12.99-1.66,24.69-7.64,33.48-16.45c10.45-10.45,16.94-24.96,16.94-40.92
			c0-3.26-0.27-6.47-0.79-9.6l-10.23,9.6l-4.01,3.77c-0.9,10.39-5.47,19.66-12.44,26.64c-7.79,7.79-18.5,12.59-30.38,12.59
			c-11.9,0-22.61-4.8-30.4-12.59c-7.79-7.81-12.59-18.51-12.6-30.41c0.01-11.89,4.81-22.58,12.6-30.38s18.5-12.59,30.4-12.59
			c11.89,0,22.59,4.78,30.38,12.59c0.91,0.9,1.76,1.85,2.59,2.84l-35.15,33.03l-23.28-30.08v24.3l21.55,27.83l71.79-67.46v-19.99
			c-0.07-0.07-0.13-0.15-0.2-0.23l-23.85,22.41c-0.93-1.09-1.9-2.15-2.92-3.17c-10.45-10.45-24.96-16.96-40.91-16.94
			c-15.97-0.01-30.47,6.49-40.92,16.94c-10.45,10.47-16.96,24.97-16.96,40.91c0,15.97,6.5,30.47,16.96,40.92
			c8.81,8.81,20.49,14.79,33.48,16.45v75.2h14.88V754.7l0.72-0.72l9.96-9.97l-5.44-5.46L612.72,733.31z"/>
	</g>
</g>
</svg>
