<?xml version="1.0" encoding="utf-8"?>
<!-- Generator: Adobe Illustrator 25.0.0, SVG Export Plug-In . SVG Version: 6.00 Build 0)  -->
<svg version="1.1" id="Layer_1" xmlns="http://www.w3.org/2000/svg" xmlns:xlink="http://www.w3.org/1999/xlink" x="0px" y="0px"
	 viewBox="0 0 1920 1280" enable-background="new 0 0 1920 1280" xml:space="preserve">
<rect x="-1.38" fill="#020202" width="1922.77" height="1280"/>
<g>
	<g>
		<path fill="#FFFFFF" d="M862.14,600.99c-8.28,3.26-15.44,7.81-21.49,13.64c-6.05,5.84-10.8,12.8-14.23,20.91
			c-3.43,8.11-5.15,16.91-5.15,26.4v79.48h33.3v-79.48c0-10.08,3.18-18.14,9.54-24.17c6.36-6.03,14.78-9.05,25.28-9.05
			c10.49,0,18.87,3.02,25.13,9.05c6.25,6.03,9.39,14.09,9.39,24.17v79.48h33.3v-79.48c0-9.49-1.66-18.28-4.99-26.4
			c-3.33-8.1-8.02-15.07-14.08-20.91c-6.05-5.83-13.22-10.38-21.49-13.64c-8.28-3.26-17.36-4.89-27.25-4.89
			C879.5,596.1,870.41,597.73,862.14,600.99"/>
		<rect x="985.15" y="538.58" fill="#FFFFFF" width="33.3" height="202.85"/>
		<path fill="#FFFFFF" d="M1048.82,544.63c-4.04,4.04-6.06,9.08-6.06,15.14c0,6.06,2.01,11.1,6.06,15.14
			c4.03,4.04,9.08,6.05,15.14,6.05s11.1-2.01,15.14-6.05c4.04-4.04,6.06-9.08,6.06-15.14c0-6.05-2.02-11.1-6.06-15.14
			c-4.04-4.03-9.08-6.06-15.14-6.06S1052.85,540.6,1048.82,544.63"/>
		<rect x="1047.3" y="596.1" fill="#FFFFFF" width="33.3" height="145.32"/>
		<path fill="#FFFFFF" d="M1110.94,706.54c-4.04,3.88-6.05,8.72-6.05,14.53c0,5.81,2.02,10.66,6.05,14.53
			c4.04,3.88,9.08,5.81,15.14,5.81s11.1-1.94,15.14-5.81c4.03-3.87,6.06-8.72,6.06-14.53c0-5.81-2.02-10.66-6.06-14.53
			c-4.04-3.87-9.08-5.81-15.14-5.81S1114.98,702.67,1110.94,706.54 M1142.28,599.59c-7.57,2.33-14.13,5.62-19.68,9.88
			c-5.55,4.26-9.89,9.3-13.02,15.11c-3.13,5.81-4.69,12.11-4.69,18.89c0,9.5,2.52,17.49,7.57,23.98
			c5.04,6.5,11.35,12.06,18.92,16.71c7.57,4.65,15.75,8.77,24.52,12.35c8.78,3.59,16.95,7.32,24.52,11.19
			c7.57,3.88,13.87,8.19,18.92,12.93c5.04,4.75,7.57,10.71,7.57,17.88h33.3c0-10.66-2.53-19.77-7.57-27.32
			c-5.05-7.56-11.35-14.05-18.92-19.47c-7.57-5.42-15.74-10.07-24.52-13.95c-8.78-3.87-16.95-7.56-24.52-11.04
			c-7.57-3.49-13.88-7.02-18.92-10.61c-5.05-3.59-7.57-7.8-7.57-12.64c0-4.84,2.57-8.87,7.72-12.06c5.15-3.2,11.66-4.79,19.53-4.79
			c9.69,0,17.46,2.13,23.31,6.39c5.85,4.26,8.78,9.88,8.78,16.86h33.3c0-7.94-1.57-15.21-4.69-21.8c-3.13-6.59-7.47-12.25-13.02-17
			c-5.55-4.75-12.21-8.43-19.98-11.04c-7.77-2.62-16.4-3.92-25.89-3.92C1158.17,596.1,1149.85,597.26,1142.28,599.59"/>
		<path fill="#FFFFFF" d="M1262.69,595.27h-18.17v32.81h18.17v47.73c0,9.74,1.61,18.69,4.84,26.84c3.23,8.16,7.82,15.06,13.78,20.73
			c5.95,5.67,13.12,10.09,21.5,13.27c8.37,3.18,17.71,4.77,28.01,4.77v-32.81c-11.31,0-19.93-2.78-25.89-8.35
			c-5.96-5.56-8.93-13.72-8.93-24.46v-47.73h34.82l-68.12-71.59V595.27z"/>
		<path fill="#FFFFFF" d="M1262.69,595.27h-18.17v32.81h18.17v47.73c0,9.74,1.61,18.69,4.84,26.84c3.23,8.16,7.82,15.06,13.78,20.73
			c5.95,5.67,13.12,10.09,21.5,13.27c8.37,3.18,17.71,4.77,28.01,4.77v-32.81c-11.31,0-19.93-2.78-25.89-8.35
			c-5.96-5.56-8.93-13.72-8.93-24.46v-47.73h34.82l-68.12-71.59V595.27z"/>
	</g>
	<g>
		<path fill="#FFFFFF" d="M664.74,703.94c-8.23-3.42-15.34-8.18-21.31-14.25c-5.98-6.08-10.63-13.38-13.97-21.9
			c-3.33-8.52-5-17.79-5-27.78c0-10.19,1.67-19.51,5-27.93c3.33-8.42,7.98-15.68,13.97-21.75c5.97-6.07,13.08-10.83,21.31-14.26
			c8.24-3.42,17.34-5.14,27.34-5.14c10,0,19.16,1.72,27.49,5.14c8.33,3.43,15.48,8.19,21.46,14.26
			c5.97,6.07,10.62,13.33,13.97,21.75c3.32,8.42,4.99,17.74,4.99,27.93c0,9.99-1.71,19.2-5.15,27.62
			c-3.42,8.44-8.14,15.73-14.11,21.9s-13.13,10.99-21.46,14.41c-8.32,3.43-17.39,5.14-27.19,5.14
			C682.09,709.09,672.98,707.38,664.74,703.94 M650.63,546.07c-12.54,5-23.37,11.96-32.48,20.88c-9.12,8.92-16.22,19.6-21.32,32.04
			c-5.09,12.45-7.64,26.12-7.64,41.02c0,14.89,2.55,28.51,7.64,40.86c5.1,12.34,12.2,23.03,21.32,32.04
			c9.11,9.02,19.94,16.02,32.48,21.02c12.54,5,26.35,7.5,41.45,7.5c14.89,0,28.62-2.55,41.16-7.65
			c12.54-5.09,23.42-12.14,32.64-21.16c9.21-9.01,16.41-19.74,21.61-32.18c5.19-12.44,7.79-25.92,7.79-40.42
			c0-14.89-2.55-28.56-7.65-41.02c-5.1-12.44-12.2-23.12-21.31-32.04c-9.12-8.92-19.99-15.88-32.64-20.88
			c-12.64-4.99-26.51-7.5-41.6-7.5C676.99,538.58,663.17,541.08,650.63,546.07"/>
		<path fill="#FFFFFF" d="M673.67,629.58c0,6.33,3.17,11.91,8.01,15.26l-8.17,24.15h37.47l-8.18-24.15
			c4.83-3.35,8.01-8.93,8.01-15.26c0-10.25-8.31-18.56-18.56-18.56S673.67,619.32,673.67,629.58"/>
	</g>
</g>
</svg>
