<?xml version="1.0" encoding="utf-8"?>
<!-- Generator: Adobe Illustrator 25.0.0, SVG Export Plug-In . SVG Version: 6.00 Build 0)  -->
<svg version="1.1" id="Layer_1" xmlns="http://www.w3.org/2000/svg" xmlns:xlink="http://www.w3.org/1999/xlink" x="0px" y="0px"
	 viewBox="0 0 1080 1080" enable-background="new 0 0 1080 1080" xml:space="preserve">
<rect x="0" fill="#020202" width="1080" height="1080"/>
<g>
	<g>
		<linearGradient id="SVGID_1_" gradientUnits="userSpaceOnUse" x1="540" y1="353.6404" x2="540" y2="2788.3552">
			<stop  offset="0" style="stop-color:#E49125"/>
			<stop  offset="0.1394" style="stop-color:#FAF183"/>
			<stop  offset="0.2424" style="stop-color:#FCFAD8"/>
			<stop  offset="0.4182" style="stop-color:#FFD23A"/>
			<stop  offset="0.5576" style="stop-color:#EBAA41"/>
			<stop  offset="0.74" style="stop-color:#FEE74B"/>
			<stop  offset="0.8909" style="stop-color:#EAA436"/>
			<stop  offset="1" style="stop-color:#FFEE9D"/>
		</linearGradient>
		<path fill="url(#SVGID_1_)" d="M473.64,694.35c-19.86-8.26-37.02-19.75-51.43-34.41c-14.45-14.69-25.67-32.3-33.72-52.88
			c-8.05-20.57-12.07-42.94-12.07-67.06c0-24.6,4.03-47.09,12.07-67.43c8.05-20.34,19.27-37.85,33.72-52.5
			c14.42-14.66,31.58-26.15,51.43-34.43c19.88-8.26,41.87-12.42,65.99-12.42c24.15,0,46.24,4.16,66.36,12.42
			c20.1,8.29,37.37,19.78,51.81,34.43c14.42,14.66,25.64,32.17,33.72,52.5c8.02,20.33,12.05,42.83,12.05,67.43
			c0,24.12-4.13,46.35-12.42,66.68c-8.26,20.36-19.64,37.98-34.06,52.88s-31.69,26.52-51.81,34.78
			c-20.1,8.29-41.98,12.42-65.64,12.42C515.51,706.77,493.52,702.64,473.64,694.35 M439.58,313.26
			c-30.28,12.07-56.42,28.86-78.41,50.4c-22.01,21.53-39.15,47.31-51.46,77.34c-12.28,30.06-18.44,63.06-18.44,99.01
			s6.16,68.81,18.44,98.64c12.31,29.8,29.45,55.6,51.46,77.34c21.99,21.77,48.13,38.67,78.41,50.74
			c30.28,12.07,63.62,18.1,100.05,18.1c35.95,0,69.08-6.16,99.36-18.47c30.27-12.29,56.53-29.32,78.78-51.09
			c22.23-21.75,39.6-47.65,52.16-77.69c12.53-30.04,18.82-62.58,18.82-97.57c0-35.95-6.16-68.95-18.47-99.01
			c-12.31-30.04-29.45-55.81-51.44-77.34c-22.01-21.53-48.27-38.32-78.78-50.4c-30.52-12.05-63.99-18.1-100.42-18.1
			C503.19,295.17,469.85,301.22,439.58,313.26"/>
		<linearGradient id="SVGID_2_" gradientUnits="userSpaceOnUse" x1="540.0013" y1="353.6404" x2="540.0013" y2="2788.3552">
			<stop  offset="0" style="stop-color:#E49125"/>
			<stop  offset="0.1394" style="stop-color:#FAF183"/>
			<stop  offset="0.2424" style="stop-color:#FCFAD8"/>
			<stop  offset="0.4182" style="stop-color:#FFD23A"/>
			<stop  offset="0.5576" style="stop-color:#EBAA41"/>
			<stop  offset="0.74" style="stop-color:#FEE74B"/>
			<stop  offset="0.8909" style="stop-color:#EAA436"/>
			<stop  offset="1" style="stop-color:#FFEE9D"/>
		</linearGradient>
		<path fill="url(#SVGID_2_)" d="M495.19,514.84c0,15.28,7.65,28.75,19.33,36.84l-19.73,58.3h90.44l-19.74-58.3
			c11.67-8.09,19.33-21.56,19.33-36.84c0-24.75-20.06-44.81-44.81-44.81C515.25,470.02,495.19,490.09,495.19,514.84"/>
	</g>
</g>
</svg>
